<svg width="16" height="16" viewBox="0 0 16 16" fill="none" xmlns="http://www.w3.org/2000/svg">
<path d="M4.57344 13.126H11.4266L11.8047 5.12598H4.19531L4.57344 13.126Z" fill="#E6F7FF"/>
<path d="M13.5 4.00098H11.5V2.75098C11.5 2.19941 11.0516 1.75098 10.5 1.75098H5.5C4.94844 1.75098 4.5 2.19941 4.5 2.75098V4.00098H2.5C2.22344 4.00098 2 4.22441 2 4.50098V5.00098C2 5.06973 2.05625 5.12598 2.125 5.12598H3.06875L3.45469 13.2979C3.47969 13.8307 3.92031 14.251 4.45312 14.251H11.5469C12.0813 14.251 12.5203 13.8322 12.5453 13.2979L12.9312 5.12598H13.875C13.9438 5.12598 14 5.06973 14 5.00098V4.50098C14 4.22441 13.7766 4.00098 13.5 4.00098ZM5.625 2.87598H10.375V4.00098H5.625V2.87598ZM11.4266 13.126H4.57344L4.19531 5.12598H11.8047L11.4266 13.126Z" fill="black"/>
</svg>
